<?xml version="1.0" encoding="utf-8"?>
<!-- Generator: Adobe Illustrator 24.2.0, SVG Export Plug-In . SVG Version: 6.00 Build 0)  -->
<svg version="1.1" id="Capa_1" xmlns="http://www.w3.org/2000/svg" xmlns:xlink="http://www.w3.org/1999/xlink" x="0px" y="0px"
	 viewBox="0 0 329 96" style="enable-background:new 0 0 329 96;" xml:space="preserve">
<g>
	<path style="fill:#010202;" d="M27,41.7c-3.3,0.1-6.1,1-8.6,2.7c-2.5,1.7-4.2,4.1-5.2,7.1v23.3H8.3V37.5h4.6v8.9
		c1.3-2.6,3-4.8,5.1-6.4c2.1-1.6,4.4-2.5,6.8-2.7c0.5,0,0.9-0.1,1.3-0.1c0.4,0,0.7,0,0.9,0.1V41.7z"/>
	<path style="fill:#010202;" d="M48.6,75.6c-2.7,0-5.2-0.5-7.5-1.5c-2.3-1-4.3-2.4-6-4.2c-1.7-1.8-3-3.9-3.9-6.2
		c-0.9-2.3-1.4-4.9-1.4-7.5c0-3.5,0.8-6.7,2.4-9.6c1.6-2.9,3.8-5.2,6.7-7c2.8-1.7,6-2.6,9.6-2.6c3.7,0,6.9,0.9,9.7,2.6
		c2.8,1.8,4.9,4.1,6.5,7c1.6,2.9,2.4,6,2.4,9.5c0,0.4,0,0.8,0,1.1c0,0.4,0,0.6-0.1,0.8H34.9c0.2,2.7,1,5.1,2.3,7.1
		c1.3,2.1,2.9,3.7,5,4.9c2,1.2,4.3,1.8,6.7,1.8c2.4,0,4.8-0.6,6.9-1.9c2.2-1.2,3.7-2.9,4.6-4.9l4.2,1.2c-0.8,1.8-1.9,3.4-3.5,4.8
		s-3.4,2.6-5.6,3.3C53.4,75.2,51.1,75.6,48.6,75.6z M34.8,54.4h27.7c-0.2-2.7-0.9-5.1-2.2-7.1c-1.3-2-2.9-3.6-5-4.8
		c-2-1.2-4.3-1.7-6.7-1.7c-2.4,0-4.7,0.6-6.7,1.7c-2,1.2-3.7,2.8-4.9,4.8C35.7,49.4,35,51.8,34.8,54.4z"/>
	<path style="fill:#010202;" d="M87,75.6c-3.1,0-5.9-0.5-8.6-1.5c-2.6-1-4.9-2.5-6.8-4.6l2-3.5c2.1,2,4.2,3.4,6.4,4.3
		c2.1,0.9,4.4,1.3,6.8,1.3c2.9,0,5.3-0.6,7.1-1.7c1.8-1.2,2.7-2.8,2.7-5c0-1.5-0.4-2.6-1.3-3.4c-0.9-0.8-2.2-1.4-3.8-1.9
		c-1.7-0.5-3.6-1-5.9-1.6c-2.6-0.7-4.8-1.5-6.5-2.3c-1.8-0.8-3.1-1.8-4-3c-0.9-1.2-1.3-2.8-1.3-4.8c0-2.4,0.6-4.5,1.8-6.1
		c1.2-1.6,2.9-2.8,5-3.7c2.1-0.8,4.5-1.3,7.2-1.3c2.9,0,5.4,0.5,7.6,1.4c2.2,0.9,4,2.2,5.4,3.8l-2.4,3.3c-1.3-1.5-2.9-2.7-4.8-3.4
		c-1.8-0.7-3.9-1.1-6.2-1.1c-1.5,0-3,0.2-4.4,0.6c-1.4,0.4-2.5,1.1-3.4,2c-0.9,0.9-1.3,2.2-1.3,3.8c0,1.3,0.3,2.4,1,3.1
		c0.7,0.7,1.7,1.4,3,1.9c1.3,0.5,3,1,5,1.6c2.8,0.8,5.3,1.5,7.4,2.3c2.1,0.8,3.7,1.8,4.9,3c1.2,1.2,1.7,3,1.7,5.2
		c0,3.5-1.3,6.2-4,8.2C94.8,74.6,91.3,75.6,87,75.6z"/>
	<path style="fill:#010202;" d="M125.7,75.6c-2.7,0-5.2-0.5-7.5-1.5c-2.3-1-4.3-2.4-6-4.2c-1.7-1.8-3-3.9-3.9-6.2
		c-0.9-2.3-1.4-4.9-1.4-7.5c0-3.5,0.8-6.7,2.4-9.6c1.6-2.9,3.8-5.2,6.7-7c2.8-1.7,6-2.6,9.6-2.6c3.7,0,6.9,0.9,9.7,2.6
		c2.8,1.8,4.9,4.1,6.5,7c1.6,2.9,2.4,6,2.4,9.5c0,0.4,0,0.8,0,1.1c0,0.4,0,0.6-0.1,0.8H112c0.2,2.7,1,5.1,2.3,7.1
		c1.3,2.1,2.9,3.7,5,4.9c2,1.2,4.3,1.8,6.7,1.8c2.4,0,4.8-0.6,6.9-1.9c2.2-1.2,3.7-2.9,4.6-4.9l4.2,1.2c-0.8,1.8-1.9,3.4-3.5,4.8
		s-3.4,2.6-5.6,3.3C130.4,75.2,128.1,75.6,125.7,75.6z M111.8,54.4h27.7c-0.2-2.7-0.9-5.1-2.2-7.1c-1.3-2-2.9-3.6-5-4.8
		c-2-1.2-4.3-1.7-6.7-1.7c-2.4,0-4.7,0.6-6.7,1.7c-2,1.2-3.7,2.8-4.9,4.8C112.8,49.4,112,51.8,111.8,54.4z"/>
	<path style="fill:#010202;" d="M170.4,41.7c-3.3,0.1-6.1,1-8.6,2.7c-2.5,1.7-4.2,4.1-5.2,7.1v23.3h-4.9V37.5h4.6v8.9
		c1.3-2.6,3-4.8,5.1-6.4c2.1-1.6,4.4-2.5,6.8-2.7c0.5,0,0.9-0.1,1.3-0.1c0.4,0,0.7,0,0.9,0.1V41.7z"/>
	<path style="fill:#010202;" d="M188.2,74.9L173,37.5h5.1L190.9,70l12.9-32.5h4.8l-15.2,37.4H188.2z"/>
	<path style="fill:#010202;" d="M211.4,64.1c0-2.3,0.7-4.4,2-6c1.3-1.7,3.2-3,5.6-3.9c2.4-0.9,5.1-1.4,8.2-1.4
		c1.8,0,3.7,0.1,5.7,0.4c2,0.3,3.7,0.7,5.3,1.3v-3.2c0-3.1-0.9-5.7-2.8-7.5s-4.5-2.8-7.8-2.8c-2,0-4,0.4-5.9,1.1
		c-1.9,0.7-4,1.8-6.1,3.3l-1.9-3.5c2.4-1.7,4.8-2.9,7.2-3.8c2.4-0.8,4.8-1.3,7.2-1.3c4.6,0,8.3,1.3,10.9,3.9c2.7,2.6,4,6.2,4,10.9
		V69c0,0.7,0.1,1.2,0.4,1.5c0.3,0.3,0.7,0.5,1.4,0.5v3.9c-0.5,0-1,0.1-1.4,0.1c-0.4,0-0.7,0-0.9,0c-1.2,0-2.1-0.4-2.7-1.2
		c-0.6-0.7-1-1.5-1-2.3l-0.1-2.7c-1.7,2.2-3.9,3.8-6.6,5c-2.7,1.2-5.4,1.8-8.2,1.8c-2.4,0-4.6-0.5-6.5-1.5c-1.9-1-3.5-2.4-4.5-4.1
		C212,68.2,211.4,66.2,211.4,64.1z M236.5,67c0.5-0.7,0.9-1.3,1.2-1.9c0.3-0.6,0.4-1.2,0.4-1.6V58c-1.6-0.6-3.3-1.1-5.1-1.4
		c-1.8-0.3-3.5-0.5-5.3-0.5c-3.5,0-6.3,0.7-8.5,2.1c-2.2,1.4-3.2,3.3-3.2,5.6c0,1.4,0.4,2.7,1.1,3.9c0.7,1.2,1.8,2.2,3.2,3
		s3,1.2,4.9,1.2c2.4,0,4.5-0.5,6.6-1.4C233.9,69.6,235.4,68.4,236.5,67z"/>
</g>
<g id="XMLID_1_">
	<g>
	</g>
	<g>
		<path style="fill:none;stroke:#000000;stroke-width:1.35;stroke-miterlimit:10;" d="M303.3,86.7c4.3-0.9,19.6-5.8,17.1-29.9
			c0,0-5.3,7.6-12.2,8.3C308.2,65.1,312.8,84.3,303.3,86.7"/>
		<path style="fill:none;stroke:#000000;stroke-width:1.35;stroke-miterlimit:10;" d="M302.6,86.8c0.1,0,0.2,0,0.3,0
			c0.1,0,0.3-0.1,0.4-0.1"/>
		<path style="fill:none;stroke:#000000;stroke-width:1.35;stroke-miterlimit:10;" d="M302.4,86.9C302.4,86.9,302.4,86.9,302.4,86.9
			"/>
		<path style="fill:none;stroke:#000000;stroke-width:1.35;stroke-miterlimit:10;" d="M302.5,86.8C302.4,86.9,302.4,86.9,302.5,86.8
			c-0.2,0-0.2,0-0.2,0c-13.6,1.4-27.2,2.8-40.8,4.2c-2.8-26.6-5.5-53.2-8.2-79.7L315,5c1.8,17.2,3.5,34.3,5.3,51.5"/>
		<path style="fill:none;stroke:#000000;stroke-width:1.35;stroke-miterlimit:10;" d="M302.5,86.8C302.5,86.9,302.5,86.8,302.5,86.8
			c0.1,0,0.1,0,0.2,0"/>
		<path style="fill:none;stroke:#000000;stroke-width:1.35;stroke-miterlimit:10;" d="M303.3,86.7c-0.1,0-0.3,0.1-0.4,0.1
			c-0.1,0-0.2,0-0.3,0"/>
		<path style="fill:none;stroke:#000000;stroke-width:1.35;stroke-miterlimit:10;" d="M303.3,86.7C303.3,86.7,303.3,86.7,303.3,86.7
			"/>
	</g>
</g>
<g>
	<path style="fill:#010202;" d="M304.2,30.9l-14.1,1.5l3.8,36.5l-6.7,0.7l-3.8-36.5l-14.1,1.5l-0.6-5.9l35-3.6L304.2,30.9z"/>
</g>
</svg>
